<svg id="visual" viewBox="0 0 900 600" width="900" height="600" xmlns="http://www.w3.org/2000/svg" xmlns:xlink="http://www.w3.org/1999/xlink" version="1.1"><path d="M0 25L15 27C30 29 60 33 90 39C120 45 150 53 180 56C210 59 240 57 270 55C300 53 330 51 360 47C390 43 420 37 450 39C480 41 510 51 540 53C570 55 600 49 630 51C660 53 690 63 720 66C750 69 780 65 810 57C840 49 870 37 885 31L900 25L900 0L885 0C870 0 840 0 810 0C780 0 750 0 720 0C690 0 660 0 630 0C600 0 570 0 540 0C510 0 480 0 450 0C420 0 390 0 360 0C330 0 300 0 270 0C240 0 210 0 180 0C150 0 120 0 90 0C60 0 30 0 15 0L0 0Z" fill="#575e65"></path><path d="M0 91L15 101C30 111 60 131 90 143C120 155 150 159 180 156C210 153 240 143 270 137C300 131 330 129 360 134C390 139 420 151 450 147C480 143 510 123 540 118C570 113 600 123 630 127C660 131 690 129 720 137C750 145 780 163 810 170C840 177 870 173 885 171L900 169L900 23L885 29C870 35 840 47 810 55C780 63 750 67 720 64C690 61 660 51 630 49C600 47 570 53 540 51C510 49 480 39 450 37C420 35 390 41 360 45C330 49 300 51 270 53C240 55 210 57 180 54C150 51 120 43 90 37C60 31 30 27 15 25L0 23Z" fill="#4d535a"></path><path d="M0 151L15 162C30 173 60 195 90 205C120 215 150 213 180 203C210 193 240 175 270 174C300 173 330 189 360 197C390 205 420 205 450 196C480 187 510 169 540 165C570 161 600 171 630 175C660 179 690 177 720 185C750 193 780 211 810 217C840 223 870 217 885 214L900 211L900 167L885 169C870 171 840 175 810 168C780 161 750 143 720 135C690 127 660 129 630 125C600 121 570 111 540 116C510 121 480 141 450 145C420 149 390 137 360 132C330 127 300 129 270 135C240 141 210 151 180 154C150 157 120 153 90 141C60 129 30 109 15 99L0 89Z" fill="#434950"></path><path d="M0 205L15 211C30 217 60 229 90 234C120 239 150 237 180 231C210 225 240 215 270 214C300 213 330 221 360 231C390 241 420 253 450 250C480 247 510 229 540 221C570 213 600 215 630 219C660 223 690 229 720 241C750 253 780 271 810 275C840 279 870 269 885 264L900 259L900 209L885 212C870 215 840 221 810 215C780 209 750 191 720 183C690 175 660 177 630 173C600 169 570 159 540 163C510 167 480 185 450 194C420 203 390 203 360 195C330 187 300 171 270 172C240 173 210 191 180 201C150 211 120 213 90 203C60 193 30 171 15 160L0 149Z" fill="#393f45"></path><path d="M0 403L15 408C30 413 60 423 90 427C120 431 150 429 180 427C210 425 240 423 270 407C300 391 330 361 360 363C390 365 420 399 450 415C480 431 510 429 540 408C570 387 600 347 630 352C660 357 690 407 720 430C750 453 780 449 810 450C840 451 870 457 885 460L900 463L900 257L885 262C870 267 840 277 810 273C780 269 750 251 720 239C690 227 660 221 630 217C600 213 570 211 540 219C510 227 480 245 450 248C420 251 390 239 360 229C330 219 300 211 270 212C240 213 210 223 180 229C150 235 120 237 90 232C60 227 30 215 15 209L0 203Z" fill="#32383e"></path><path d="M0 457L15 457C30 457 60 457 90 457C120 457 150 457 180 458C210 459 240 461 270 444C300 427 330 391 360 390C390 389 420 423 450 444C480 465 510 473 540 452C570 431 600 381 630 380C660 379 690 427 720 450C750 473 780 471 810 474C840 477 870 485 885 489L900 493L900 461L885 458C870 455 840 449 810 448C780 447 750 451 720 428C690 405 660 355 630 350C600 345 570 385 540 406C510 427 480 429 450 413C420 397 390 363 360 361C330 359 300 389 270 405C240 421 210 423 180 425C150 427 120 429 90 425C60 421 30 411 15 406L0 401Z" fill="#2e3339"></path><path d="M0 499L15 502C30 505 60 511 90 517C120 523 150 529 180 531C210 533 240 531 270 515C300 499 330 469 360 468C390 467 420 495 450 507C480 519 510 515 540 495C570 475 600 439 630 441C660 443 690 483 720 505C750 527 780 531 810 533C840 535 870 535 885 535L900 535L900 491L885 487C870 483 840 475 810 472C780 469 750 471 720 448C690 425 660 377 630 378C600 379 570 429 540 450C510 471 480 463 450 442C420 421 390 387 360 388C330 389 300 425 270 442C240 459 210 457 180 456C150 455 120 455 90 455C60 455 30 455 15 455L0 455Z" fill="#2b2f35"></path><path d="M0 601L15 601C30 601 60 601 90 601C120 601 150 601 180 601C210 601 240 601 270 601C300 601 330 601 360 601C390 601 420 601 450 601C480 601 510 601 540 601C570 601 600 601 630 601C660 601 690 601 720 601C750 601 780 601 810 601C840 601 870 601 885 601L900 601L900 533L885 533C870 533 840 533 810 531C780 529 750 525 720 503C690 481 660 441 630 439C600 437 570 473 540 493C510 513 480 517 450 505C420 493 390 465 360 466C330 467 300 497 270 513C240 529 210 531 180 529C150 527 120 521 90 515C60 509 30 503 15 500L0 497Z" fill="#272b30"></path></svg>