<svg id="visual" viewBox="0 0 900 600" width="900" height="600" xmlns="http://www.w3.org/2000/svg" xmlns:xlink="http://www.w3.org/1999/xlink" version="1.1"><path d="M0 13L15 21C30 29 60 45 90 58C120 71 150 81 180 84C210 87 240 83 270 75C300 67 330 55 360 44C390 33 420 23 450 26C480 29 510 45 540 50C570 55 600 49 630 51C660 53 690 63 720 67C750 71 780 69 810 71C840 73 870 79 885 82L900 85L900 0L885 0C870 0 840 0 810 0C780 0 750 0 720 0C690 0 660 0 630 0C600 0 570 0 540 0C510 0 480 0 450 0C420 0 390 0 360 0C330 0 300 0 270 0C240 0 210 0 180 0C150 0 120 0 90 0C60 0 30 0 15 0L0 0Z" fill="#eeeeee"></path><path d="M0 103L15 107C30 111 60 119 90 137C120 155 150 183 180 183C210 183 240 155 270 138C300 121 330 115 360 117C390 119 420 129 450 132C480 135 510 131 540 127C570 123 600 119 630 129C660 139 690 163 720 160C750 157 780 127 810 127C840 127 870 157 885 172L900 187L900 83L885 80C870 77 840 71 810 69C780 67 750 69 720 65C690 61 660 51 630 49C600 47 570 53 540 48C510 43 480 27 450 24C420 21 390 31 360 42C330 53 300 65 270 73C240 81 210 85 180 82C150 79 120 69 90 56C60 43 30 27 15 19L0 11Z" fill="#f3f3f3"></path><path d="M0 157L15 174C30 191 60 225 90 238C120 251 150 243 180 241C210 239 240 243 270 242C300 241 330 235 360 234C390 233 420 237 450 225C480 213 510 185 540 171C570 157 600 157 630 183C660 209 690 261 720 259C750 257 780 201 810 190C840 179 870 213 885 230L900 247L900 185L885 170C870 155 840 125 810 125C780 125 750 155 720 158C690 161 660 137 630 127C600 117 570 121 540 125C510 129 480 133 450 130C420 127 390 117 360 115C330 113 300 119 270 136C240 153 210 181 180 181C150 181 120 153 90 135C60 117 30 109 15 105L0 101Z" fill="#f8f8f8"></path><path d="M0 205L15 226C30 247 60 289 90 297C120 305 150 279 180 276C210 273 240 293 270 300C300 307 330 301 360 304C390 307 420 319 450 313C480 307 510 283 540 265C570 247 600 235 630 257C660 279 690 335 720 324C750 313 780 235 810 213C840 191 870 225 885 242L900 259L900 245L885 228C870 211 840 177 810 188C780 199 750 255 720 257C690 259 660 207 630 181C600 155 570 155 540 169C510 183 480 211 450 223C420 235 390 231 360 232C330 233 300 239 270 240C240 241 210 237 180 239C150 241 120 249 90 236C60 223 30 189 15 172L0 155Z" fill="#fdfdfd"></path><path d="M0 409L15 421C30 433 60 457 90 468C120 479 150 477 180 470C210 463 240 451 270 431C300 411 330 383 360 386C390 389 420 423 450 413C480 403 510 349 540 326C570 303 600 311 630 345C660 379 690 439 720 450C750 461 780 423 810 420C840 417 870 449 885 465L900 481L900 257L885 240C870 223 840 189 810 211C780 233 750 311 720 322C690 333 660 277 630 255C600 233 570 245 540 263C510 281 480 305 450 311C420 317 390 305 360 302C330 299 300 305 270 298C240 291 210 271 180 274C150 277 120 303 90 295C60 287 30 245 15 224L0 203Z" fill="#ffffff"></path><path d="M0 583L15 575C30 567 60 551 90 548C120 545 150 555 180 556C210 557 240 549 270 535C300 521 330 501 360 502C390 503 420 525 450 538C480 551 510 555 540 550C570 545 600 531 630 533C660 535 690 553 720 560C750 567 780 563 810 554C840 545 870 531 885 524L900 517L900 479L885 463C870 447 840 415 810 418C780 421 750 459 720 448C690 437 660 377 630 343C600 309 570 301 540 324C510 347 480 401 450 411C420 421 390 387 360 384C330 381 300 409 270 429C240 449 210 461 180 468C150 475 120 477 90 466C60 455 30 431 15 419L0 407Z" fill="#ffffff"></path><path d="M0 589L15 589C30 589 60 589 90 588C120 587 150 585 180 578C210 571 240 559 270 552C300 545 330 543 360 544C390 545 420 549 450 553C480 557 510 561 540 556C570 551 600 537 630 541C660 545 690 567 720 576C750 585 780 581 810 575C840 569 870 561 885 557L900 553L900 515L885 522C870 529 840 543 810 552C780 561 750 565 720 558C690 551 660 533 630 531C600 529 570 543 540 548C510 553 480 549 450 536C420 523 390 501 360 500C330 499 300 519 270 533C240 547 210 555 180 554C150 553 120 543 90 546C60 549 30 565 15 573L0 581Z" fill="#ffffff"></path><path d="M0 601L15 601C30 601 60 601 90 601C120 601 150 601 180 601C210 601 240 601 270 601C300 601 330 601 360 601C390 601 420 601 450 601C480 601 510 601 540 601C570 601 600 601 630 601C660 601 690 601 720 601C750 601 780 601 810 601C840 601 870 601 885 601L900 601L900 551L885 555C870 559 840 567 810 573C780 579 750 583 720 574C690 565 660 543 630 539C600 535 570 549 540 554C510 559 480 555 450 551C420 547 390 543 360 542C330 541 300 543 270 550C240 557 210 569 180 576C150 583 120 585 90 586C60 587 30 587 15 587L0 587Z" fill="#ffffff"></path></svg>