<svg id="visual" viewBox="0 0 960 540" width="960" height="540" xmlns="http://www.w3.org/2000/svg" xmlns:xlink="http://www.w3.org/1999/xlink" version="1.1"><path d="M0 33L12.3 30.3C24.7 27.7 49.3 22.3 74 21.5C98.7 20.7 123.3 24.3 148 25.3C172.7 26.3 197.3 24.7 221.8 23.8C246.3 23 270.7 23 295.2 23C319.7 23 344.3 23 369 24.7C393.7 26.3 418.3 29.7 443 28.7C467.7 27.7 492.3 22.3 517 22.3C541.7 22.3 566.3 27.7 591 30.3C615.7 33 640.3 33 664.8 32.2C689.3 31.3 713.7 29.7 738.2 28.8C762.7 28 787.3 28 812 27.2C836.7 26.3 861.3 24.7 886 21C910.7 17.3 935.3 11.7 947.7 8.8L960 6L960 0L947.7 0C935.3 0 910.7 0 886 0C861.3 0 836.7 0 812 0C787.3 0 762.7 0 738.2 0C713.7 0 689.3 0 664.8 0C640.3 0 615.7 0 591 0C566.3 0 541.7 0 517 0C492.3 0 467.7 0 443 0C418.3 0 393.7 0 369 0C344.3 0 319.7 0 295.2 0C270.7 0 246.3 0 221.8 0C197.3 0 172.7 0 148 0C123.3 0 98.7 0 74 0C49.3 0 24.7 0 12.3 0L0 0Z" fill="#ededed"></path><path d="M0 66L12.3 71.3C24.7 76.7 49.3 87.3 74 90.8C98.7 94.3 123.3 90.7 148 84.3C172.7 78 197.3 69 221.8 66.3C246.3 63.7 270.7 67.3 295.2 68.3C319.7 69.3 344.3 67.7 369 73.2C393.7 78.7 418.3 91.3 443 90.3C467.7 89.3 492.3 74.7 517 76.3C541.7 78 566.3 96 591 99.7C615.7 103.3 640.3 92.7 664.8 84.7C689.3 76.7 713.7 71.3 738.2 66.8C762.7 62.3 787.3 58.7 812 62.2C836.7 65.7 861.3 76.3 886 75.5C910.7 74.7 935.3 62.3 947.7 56.2L960 50L960 4L947.7 6.8C935.3 9.7 910.7 15.3 886 19C861.3 22.7 836.7 24.3 812 25.2C787.3 26 762.7 26 738.2 26.8C713.7 27.7 689.3 29.3 664.8 30.2C640.3 31 615.7 31 591 28.3C566.3 25.7 541.7 20.3 517 20.3C492.3 20.3 467.7 25.7 443 26.7C418.3 27.7 393.7 24.3 369 22.7C344.3 21 319.7 21 295.2 21C270.7 21 246.3 21 221.8 21.8C197.3 22.7 172.7 24.3 148 23.3C123.3 22.3 98.7 18.7 74 19.5C49.3 20.3 24.7 25.7 12.3 28.3L0 31Z" fill="#f1f1f1"></path><path d="M0 104L12.3 106.7C24.7 109.3 49.3 114.7 74 114.7C98.7 114.7 123.3 109.3 148 104.8C172.7 100.3 197.3 96.7 221.8 94.8C246.3 93 270.7 93 295.2 93C319.7 93 344.3 93 369 100.2C393.7 107.3 418.3 121.7 443 121.7C467.7 121.7 492.3 107.3 517 107.3C541.7 107.3 566.3 121.7 591 124.3C615.7 127 640.3 118 664.8 109C689.3 100 713.7 91 738.2 88.3C762.7 85.7 787.3 89.3 812 95.7C836.7 102 861.3 111 886 108.3C910.7 105.7 935.3 91.3 947.7 84.2L960 77L960 48L947.7 54.2C935.3 60.3 910.7 72.7 886 73.5C861.3 74.3 836.7 63.7 812 60.2C787.3 56.7 762.7 60.3 738.2 64.8C713.7 69.3 689.3 74.7 664.8 82.7C640.3 90.7 615.7 101.3 591 97.7C566.3 94 541.7 76 517 74.3C492.3 72.7 467.7 87.3 443 88.3C418.3 89.3 393.7 76.7 369 71.2C344.3 65.7 319.7 67.3 295.2 66.3C270.7 65.3 246.3 61.7 221.8 64.3C197.3 67 172.7 76 148 82.3C123.3 88.7 98.7 92.3 74 88.8C49.3 85.3 24.7 74.7 12.3 69.3L0 64Z" fill="#f5f5f5"></path><path d="M0 152L12.3 163.7C24.7 175.3 49.3 198.7 74 196.8C98.7 195 123.3 168 148 154.5C172.7 141 197.3 141 221.8 142.8C246.3 144.7 270.7 148.3 295.2 150.2C319.7 152 344.3 152 369 159.2C393.7 166.3 418.3 180.7 443 178.8C467.7 177 492.3 159 517 169.8C541.7 180.7 566.3 220.3 591 230.3C615.7 240.3 640.3 220.7 664.8 196.3C689.3 172 713.7 143 738.2 150.2C762.7 157.3 787.3 200.7 812 208.8C836.7 217 861.3 190 886 172.8C910.7 155.7 935.3 148.3 947.7 144.7L960 141L960 75L947.7 82.2C935.3 89.3 910.7 103.7 886 106.3C861.3 109 836.7 100 812 93.7C787.3 87.3 762.7 83.7 738.2 86.3C713.7 89 689.3 98 664.8 107C640.3 116 615.7 125 591 122.3C566.3 119.7 541.7 105.3 517 105.3C492.3 105.3 467.7 119.7 443 119.7C418.3 119.7 393.7 105.3 369 98.2C344.3 91 319.7 91 295.2 91C270.7 91 246.3 91 221.8 92.8C197.3 94.7 172.7 98.3 148 102.8C123.3 107.3 98.7 112.7 74 112.7C49.3 112.7 24.7 107.3 12.3 104.7L0 102Z" fill="#f9f9f9"></path><path d="M0 185L12.3 195.7C24.7 206.3 49.3 227.7 74 228.5C98.7 229.3 123.3 209.7 148 195.3C172.7 181 197.3 172 221.8 170.2C246.3 168.3 270.7 173.7 295.2 178.2C319.7 182.7 344.3 186.3 369 194.5C393.7 202.7 418.3 215.3 443 216.2C467.7 217 492.3 206 517 214C541.7 222 566.3 249 591 258C615.7 267 640.3 258 664.8 241C689.3 224 713.7 199 738.2 206.3C762.7 213.7 787.3 253.3 812 260.5C836.7 267.7 861.3 242.3 886 220.7C910.7 199 935.3 181 947.7 172L960 163L960 139L947.7 142.7C935.3 146.3 910.7 153.7 886 170.8C861.3 188 836.7 215 812 206.8C787.3 198.7 762.7 155.3 738.2 148.2C713.7 141 689.3 170 664.8 194.3C640.3 218.7 615.7 238.3 591 228.3C566.3 218.3 541.7 178.7 517 167.8C492.3 157 467.7 175 443 176.8C418.3 178.7 393.7 164.3 369 157.2C344.3 150 319.7 150 295.2 148.2C270.7 146.3 246.3 142.7 221.8 140.8C197.3 139 172.7 139 148 152.5C123.3 166 98.7 193 74 194.8C49.3 196.7 24.7 173.3 12.3 161.7L0 150Z" fill="#fdfdfd"></path><path d="M0 228L12.3 234.3C24.7 240.7 49.3 253.3 74 256C98.7 258.7 123.3 251.3 148 240.5C172.7 229.7 197.3 215.3 221.8 213.5C246.3 211.7 270.7 222.3 295.2 224.2C319.7 226 344.3 219 369 228C393.7 237 418.3 262 443 262.8C467.7 263.7 492.3 240.3 517 245.8C541.7 251.3 566.3 285.7 591 297.3C615.7 309 640.3 298 664.8 284.5C689.3 271 713.7 255 738.2 258.7C762.7 262.3 787.3 285.7 812 288.3C836.7 291 861.3 273 886 259.5C910.7 246 935.3 237 947.7 232.5L960 228L960 161L947.7 170C935.3 179 910.7 197 886 218.7C861.3 240.3 836.7 265.7 812 258.5C787.3 251.3 762.7 211.7 738.2 204.3C713.7 197 689.3 222 664.8 239C640.3 256 615.7 265 591 256C566.3 247 541.7 220 517 212C492.3 204 467.7 215 443 214.2C418.3 213.3 393.7 200.7 369 192.5C344.3 184.3 319.7 180.7 295.2 176.2C270.7 171.7 246.3 166.3 221.8 168.2C197.3 170 172.7 179 148 193.3C123.3 207.7 98.7 227.3 74 226.5C49.3 225.7 24.7 204.3 12.3 193.7L0 183Z" fill="#ffffff"></path><path d="M0 249L12.3 257.2C24.7 265.3 49.3 281.7 74 285.3C98.7 289 123.3 280 148 269.2C172.7 258.3 197.3 245.7 221.8 243C246.3 240.3 270.7 247.7 295.2 249.5C319.7 251.3 344.3 247.7 369 256.7C393.7 265.7 418.3 287.3 443 287.3C467.7 287.3 492.3 265.7 517 270.2C541.7 274.7 566.3 305.3 591 318C615.7 330.7 640.3 325.3 664.8 311.8C689.3 298.3 713.7 276.7 738.2 280.2C762.7 283.7 787.3 312.3 812 315.8C836.7 319.3 861.3 297.7 886 285.2C910.7 272.7 935.3 269.3 947.7 267.7L960 266L960 226L947.7 230.5C935.3 235 910.7 244 886 257.5C861.3 271 836.7 289 812 286.3C787.3 283.7 762.7 260.3 738.2 256.7C713.7 253 689.3 269 664.8 282.5C640.3 296 615.7 307 591 295.3C566.3 283.7 541.7 249.3 517 243.8C492.3 238.3 467.7 261.7 443 260.8C418.3 260 393.7 235 369 226C344.3 217 319.7 224 295.2 222.2C270.7 220.3 246.3 209.7 221.8 211.5C197.3 213.3 172.7 227.7 148 238.5C123.3 249.3 98.7 256.7 74 254C49.3 251.3 24.7 238.7 12.3 232.3L0 226Z" fill="#ffffff"></path><path d="M0 271L12.3 279.2C24.7 287.3 49.3 303.7 74 308.2C98.7 312.7 123.3 305.3 148 293.5C172.7 281.7 197.3 265.3 221.8 260C246.3 254.7 270.7 260.3 295.2 264.8C319.7 269.3 344.3 272.7 369 281.7C393.7 290.7 418.3 305.3 443 300.8C467.7 296.3 492.3 272.7 517 279.8C541.7 287 566.3 325 591 339.5C615.7 354 640.3 345 664.8 329.7C689.3 314.3 713.7 292.7 738.2 295.3C762.7 298 787.3 325 812 326.8C836.7 328.7 861.3 305.3 886 295.5C910.7 285.7 935.3 289.3 947.7 291.2L960 293L960 264L947.7 265.7C935.3 267.3 910.7 270.7 886 283.2C861.3 295.7 836.7 317.3 812 313.8C787.3 310.3 762.7 281.7 738.2 278.2C713.7 274.7 689.3 296.3 664.8 309.8C640.3 323.3 615.7 328.7 591 316C566.3 303.3 541.7 272.7 517 268.2C492.3 263.7 467.7 285.3 443 285.3C418.3 285.3 393.7 263.7 369 254.7C344.3 245.7 319.7 249.3 295.2 247.5C270.7 245.7 246.3 238.3 221.8 241C197.3 243.7 172.7 256.3 148 267.2C123.3 278 98.7 287 74 283.3C49.3 279.7 24.7 263.3 12.3 255.2L0 247Z" fill="#fdfdfd"></path><path d="M0 303L12.3 311.2C24.7 319.3 49.3 335.7 74 346.5C98.7 357.3 123.3 362.7 148 359C172.7 355.3 197.3 342.7 221.8 337.3C246.3 332 270.7 334 295.2 338.5C319.7 343 344.3 350 369 356.3C393.7 362.7 418.3 368.3 443 363.8C467.7 359.3 492.3 344.7 517 353.7C541.7 362.7 566.3 395.3 591 402.7C615.7 410 640.3 392 664.8 381.2C689.3 370.3 713.7 366.7 738.2 375.7C762.7 384.7 787.3 406.3 812 396.3C836.7 386.3 861.3 344.7 886 326.7C910.7 308.7 935.3 314.3 947.7 317.2L960 320L960 291L947.7 289.2C935.3 287.3 910.7 283.7 886 293.5C861.3 303.3 836.7 326.7 812 324.8C787.3 323 762.7 296 738.2 293.3C713.7 290.7 689.3 312.3 664.8 327.7C640.3 343 615.7 352 591 337.5C566.3 323 541.7 285 517 277.8C492.3 270.7 467.7 294.3 443 298.8C418.3 303.3 393.7 288.7 369 279.7C344.3 270.7 319.7 267.3 295.2 262.8C270.7 258.3 246.3 252.7 221.8 258C197.3 263.3 172.7 279.7 148 291.5C123.3 303.3 98.7 310.7 74 306.2C49.3 301.7 24.7 285.3 12.3 277.2L0 269Z" fill="#f9f9f9"></path><path d="M0 330L12.3 340C24.7 350 49.3 370 74 383.5C98.7 397 123.3 404 148 396.8C172.7 389.7 197.3 368.3 221.8 361.2C246.3 354 270.7 361 295.2 366.3C319.7 371.7 344.3 375.3 369 379.8C393.7 384.3 418.3 389.7 443 387.8C467.7 386 492.3 377 517 387.8C541.7 398.7 566.3 429.3 591 434.8C615.7 440.3 640.3 420.7 664.8 406.3C689.3 392 713.7 383 738.2 393.7C762.7 404.3 787.3 434.7 812 430.2C836.7 425.7 861.3 386.3 886 366.7C910.7 347 935.3 347 947.7 347L960 347L960 318L947.7 315.2C935.3 312.3 910.7 306.7 886 324.7C861.3 342.7 836.7 384.3 812 394.3C787.3 404.3 762.7 382.7 738.2 373.7C713.7 364.7 689.3 368.3 664.8 379.2C640.3 390 615.7 408 591 400.7C566.3 393.3 541.7 360.7 517 351.7C492.3 342.7 467.7 357.3 443 361.8C418.3 366.3 393.7 360.7 369 354.3C344.3 348 319.7 341 295.2 336.5C270.7 332 246.3 330 221.8 335.3C197.3 340.7 172.7 353.3 148 357C123.3 360.7 98.7 355.3 74 344.5C49.3 333.7 24.7 317.3 12.3 309.2L0 301Z" fill="#f5f5f5"></path><path d="M0 519L12.3 515.5C24.7 512 49.3 505 74 502.3C98.7 499.7 123.3 501.3 148 506.7C172.7 512 197.3 521 221.8 520.2C246.3 519.3 270.7 508.7 295.2 504.2C319.7 499.7 344.3 501.3 369 502.2C393.7 503 418.3 503 443 502.2C467.7 501.3 492.3 499.7 517 504.2C541.7 508.7 566.3 519.3 591 520.2C615.7 521 640.3 512 664.8 510.2C689.3 508.3 713.7 513.7 738.2 518.2C762.7 522.7 787.3 526.3 812 526.3C836.7 526.3 861.3 522.7 886 519.2C910.7 515.7 935.3 512.3 947.7 510.7L960 509L960 345L947.7 345C935.3 345 910.7 345 886 364.7C861.3 384.3 836.7 423.7 812 428.2C787.3 432.7 762.7 402.3 738.2 391.7C713.7 381 689.3 390 664.8 404.3C640.3 418.7 615.7 438.3 591 432.8C566.3 427.3 541.7 396.7 517 385.8C492.3 375 467.7 384 443 385.8C418.3 387.7 393.7 382.3 369 377.8C344.3 373.3 319.7 369.7 295.2 364.3C270.7 359 246.3 352 221.8 359.2C197.3 366.3 172.7 387.7 148 394.8C123.3 402 98.7 395 74 381.5C49.3 368 24.7 348 12.3 338L0 328Z" fill="#f1f1f1"></path><path d="M0 541L12.3 541C24.7 541 49.3 541 74 541C98.7 541 123.3 541 148 541C172.7 541 197.3 541 221.8 541C246.3 541 270.7 541 295.2 541C319.7 541 344.3 541 369 541C393.7 541 418.3 541 443 541C467.7 541 492.3 541 517 541C541.7 541 566.3 541 591 541C615.7 541 640.3 541 664.8 541C689.3 541 713.7 541 738.2 541C762.7 541 787.3 541 812 541C836.7 541 861.3 541 886 541C910.7 541 935.3 541 947.7 541L960 541L960 507L947.7 508.7C935.3 510.3 910.7 513.7 886 517.2C861.3 520.7 836.7 524.3 812 524.3C787.3 524.3 762.7 520.7 738.2 516.2C713.7 511.7 689.3 506.3 664.8 508.2C640.3 510 615.7 519 591 518.2C566.3 517.3 541.7 506.7 517 502.2C492.3 497.7 467.7 499.3 443 500.2C418.3 501 393.7 501 369 500.2C344.3 499.3 319.7 497.7 295.2 502.2C270.7 506.7 246.3 517.3 221.8 518.2C197.3 519 172.7 510 148 504.7C123.3 499.3 98.7 497.7 74 500.3C49.3 503 24.7 510 12.3 513.5L0 517Z" fill="#ededed"></path></svg>