<svg id="visual" viewBox="0 0 900 600" width="900" height="600" xmlns="http://www.w3.org/2000/svg" xmlns:xlink="http://www.w3.org/1999/xlink" version="1.1"><path d="M0 25L11.5 29C23 33 46 41 69 45C92 49 115 49 138.2 48C161.3 47 184.7 45 207.8 41C231 37 254 31 277 30C300 29 323 33 346 37C369 41 392 45 415.2 45C438.3 45 461.7 41 484.8 39C508 37 531 37 554 35C577 33 600 29 623 30C646 31 669 37 692.2 37C715.3 37 738.7 31 761.8 31C785 31 808 37 831 40C854 43 877 43 888.5 43L900 43L900 0L888.5 0C877 0 854 0 831 0C808 0 785 0 761.8 0C738.7 0 715.3 0 692.2 0C669 0 646 0 623 0C600 0 577 0 554 0C531 0 508 0 484.8 0C461.7 0 438.3 0 415.2 0C392 0 369 0 346 0C323 0 300 0 277 0C254 0 231 0 207.8 0C184.7 0 161.3 0 138.2 0C115 0 92 0 69 0C46 0 23 0 11.5 0L0 0Z" fill="#b98483"></path><path d="M0 103L11.5 107C23 111 46 119 69 121C92 123 115 119 138.2 118C161.3 117 184.7 119 207.8 121C231 123 254 125 277 117C300 109 323 91 346 85C369 79 392 85 415.2 99C438.3 113 461.7 135 484.8 134C508 133 531 109 554 96C577 83 600 81 623 82C646 83 669 87 692.2 87C715.3 87 738.7 83 761.8 88C785 93 808 107 831 115C854 123 877 125 888.5 126L900 127L900 41L888.5 41C877 41 854 41 831 38C808 35 785 29 761.8 29C738.7 29 715.3 35 692.2 35C669 35 646 29 623 28C600 27 577 31 554 33C531 35 508 35 484.8 37C461.7 39 438.3 43 415.2 43C392 43 369 39 346 35C323 31 300 27 277 28C254 29 231 35 207.8 39C184.7 43 161.3 45 138.2 46C115 47 92 47 69 43C46 39 23 31 11.5 27L0 23Z" fill="#cb9b9a"></path><path d="M0 199L11.5 207C23 215 46 231 69 232C92 233 115 219 138.2 217C161.3 215 184.7 225 207.8 241C231 257 254 279 277 278C300 277 323 253 346 237C369 221 392 213 415.2 228C438.3 243 461.7 281 484.8 295C508 309 531 299 554 274C577 249 600 209 623 198C646 187 669 205 692.2 208C715.3 211 738.7 199 761.8 197C785 195 808 203 831 220C854 237 877 263 888.5 276L900 289L900 125L888.5 124C877 123 854 121 831 113C808 105 785 91 761.8 86C738.7 81 715.3 85 692.2 85C669 85 646 81 623 80C600 79 577 81 554 94C531 107 508 131 484.8 132C461.7 133 438.3 111 415.2 97C392 83 369 77 346 83C323 89 300 107 277 115C254 123 231 121 207.8 119C184.7 117 161.3 115 138.2 116C115 117 92 121 69 119C46 117 23 109 11.5 105L0 101Z" fill="#d9b0af"></path><path d="M0 259L11.5 267C23 275 46 291 69 296C92 301 115 295 138.2 296C161.3 297 184.7 305 207.8 314C231 323 254 333 277 326C300 319 323 295 346 280C369 265 392 259 415.2 273C438.3 287 461.7 321 484.8 341C508 361 531 367 554 348C577 329 600 285 623 266C646 247 669 253 692.2 254C715.3 255 738.7 251 761.8 253C785 255 808 263 831 283C854 303 877 335 888.5 351L900 367L900 287L888.5 274C877 261 854 235 831 218C808 201 785 193 761.8 195C738.7 197 715.3 209 692.2 206C669 203 646 185 623 196C600 207 577 247 554 272C531 297 508 307 484.8 293C461.7 279 438.3 241 415.2 226C392 211 369 219 346 235C323 251 300 275 277 276C254 277 231 255 207.8 239C184.7 223 161.3 213 138.2 215C115 217 92 231 69 230C46 229 23 213 11.5 205L0 197Z" fill="#e1c1c0"></path><path d="M0 313L11.5 319C23 325 46 337 69 341C92 345 115 341 138.2 347C161.3 353 184.7 369 207.8 374C231 379 254 373 277 364C300 355 323 343 346 335C369 327 392 323 415.2 334C438.3 345 461.7 371 484.8 384C508 397 531 397 554 376C577 355 600 313 623 297C646 281 669 291 692.2 298C715.3 305 738.7 309 761.8 316C785 323 808 333 831 348C854 363 877 383 888.5 393L900 403L900 365L888.5 349C877 333 854 301 831 281C808 261 785 253 761.8 251C738.7 249 715.3 253 692.2 252C669 251 646 245 623 264C600 283 577 327 554 346C531 365 508 359 484.8 339C461.7 319 438.3 285 415.2 271C392 257 369 263 346 278C323 293 300 317 277 324C254 331 231 321 207.8 312C184.7 303 161.3 295 138.2 294C115 293 92 299 69 294C46 289 23 273 11.5 265L0 257Z" fill="#e3c4c3"></path><path d="M0 343L11.5 349C23 355 46 367 69 371C92 375 115 371 138.2 375C161.3 379 184.7 391 207.8 396C231 401 254 399 277 392C300 385 323 373 346 363C369 353 392 345 415.2 356C438.3 367 461.7 397 484.8 413C508 429 531 431 554 409C577 387 600 341 623 322C646 303 669 311 692.2 320C715.3 329 738.7 339 761.8 351C785 363 808 377 831 393C854 409 877 427 888.5 436L900 445L900 401L888.5 391C877 381 854 361 831 346C808 331 785 321 761.8 314C738.7 307 715.3 303 692.2 296C669 289 646 279 623 295C600 311 577 353 554 374C531 395 508 395 484.8 382C461.7 369 438.3 343 415.2 332C392 321 369 325 346 333C323 341 300 353 277 362C254 371 231 377 207.8 372C184.7 367 161.3 351 138.2 345C115 339 92 343 69 339C46 335 23 323 11.5 317L0 311Z" fill="#e1c1c0"></path><path d="M0 403L11.5 404C23 405 46 407 69 412C92 417 115 425 138.2 432C161.3 439 184.7 445 207.8 448C231 451 254 451 277 445C300 439 323 427 346 417C369 407 392 399 415.2 412C438.3 425 461.7 459 484.8 474C508 489 531 485 554 461C577 437 600 393 623 371C646 349 669 349 692.2 354C715.3 359 738.7 369 761.8 386C785 403 808 427 831 446C854 465 877 479 888.5 486L900 493L900 443L888.5 434C877 425 854 407 831 391C808 375 785 361 761.8 349C738.7 337 715.3 327 692.2 318C669 309 646 301 623 320C600 339 577 385 554 407C531 429 508 427 484.8 411C461.7 395 438.3 365 415.2 354C392 343 369 351 346 361C323 371 300 383 277 390C254 397 231 399 207.8 394C184.7 389 161.3 377 138.2 373C115 369 92 373 69 369C46 365 23 353 11.5 347L0 341Z" fill="#d9b0af"></path><path d="M0 571L11.5 571C23 571 46 571 69 573C92 575 115 579 138.2 579C161.3 579 184.7 575 207.8 570C231 565 254 559 277 556C300 553 323 553 346 557C369 561 392 569 415.2 573C438.3 577 461.7 577 484.8 574C508 571 531 565 554 564C577 563 600 567 623 570C646 573 669 575 692.2 573C715.3 571 738.7 565 761.8 565C785 565 808 571 831 572C854 573 877 569 888.5 567L900 565L900 491L888.5 484C877 477 854 463 831 444C808 425 785 401 761.8 384C738.7 367 715.3 357 692.2 352C669 347 646 347 623 369C600 391 577 435 554 459C531 483 508 487 484.8 472C461.7 457 438.3 423 415.2 410C392 397 369 405 346 415C323 425 300 437 277 443C254 449 231 449 207.8 446C184.7 443 161.3 437 138.2 430C115 423 92 415 69 410C46 405 23 403 11.5 402L0 401Z" fill="#cb9b9a"></path><path d="M0 601L11.5 601C23 601 46 601 69 601C92 601 115 601 138.2 601C161.3 601 184.7 601 207.8 601C231 601 254 601 277 601C300 601 323 601 346 601C369 601 392 601 415.2 601C438.3 601 461.7 601 484.8 601C508 601 531 601 554 601C577 601 600 601 623 601C646 601 669 601 692.2 601C715.3 601 738.7 601 761.8 601C785 601 808 601 831 601C854 601 877 601 888.5 601L900 601L900 563L888.5 565C877 567 854 571 831 570C808 569 785 563 761.8 563C738.7 563 715.3 569 692.2 571C669 573 646 571 623 568C600 565 577 561 554 562C531 563 508 569 484.8 572C461.7 575 438.3 575 415.2 571C392 567 369 559 346 555C323 551 300 551 277 554C254 557 231 563 207.8 568C184.7 573 161.3 577 138.2 577C115 577 92 573 69 571C46 569 23 569 11.5 569L0 569Z" fill="#b98483"></path></svg>