<svg id="visual" viewBox="0 0 900 600" width="900" height="600" xmlns="http://www.w3.org/2000/svg" xmlns:xlink="http://www.w3.org/1999/xlink" version="1.1"><path d="M0 145L13.7 132C27.3 119 54.7 93 82 84C109.3 75 136.7 83 163.8 92C191 101 218 111 245.2 106C272.3 101 299.7 81 327 85C354.3 89 381.7 117 409 120C436.3 123 463.7 101 491 87C518.3 73 545.7 67 573 65C600.3 63 627.7 65 654.8 71C682 77 709 87 736.2 96C763.3 105 790.7 113 818 112C845.3 111 872.7 101 886.3 96L900 91L900 0L886.3 0C872.7 0 845.3 0 818 0C790.7 0 763.3 0 736.2 0C709 0 682 0 654.8 0C627.7 0 600.3 0 573 0C545.7 0 518.3 0 491 0C463.7 0 436.3 0 409 0C381.7 0 354.3 0 327 0C299.7 0 272.3 0 245.2 0C218 0 191 0 163.8 0C136.7 0 109.3 0 82 0C54.7 0 27.3 0 13.7 0L0 0Z" fill="#bf9392"></path><path d="M0 223L13.7 211C27.3 199 54.7 175 82 162C109.3 149 136.7 147 163.8 153C191 159 218 173 245.2 169C272.3 165 299.7 143 327 147C354.3 151 381.7 181 409 181C436.3 181 463.7 151 491 133C518.3 115 545.7 109 573 112C600.3 115 627.7 127 654.8 134C682 141 709 143 736.2 155C763.3 167 790.7 189 818 186C845.3 183 872.7 155 886.3 141L900 127L900 89L886.3 94C872.7 99 845.3 109 818 110C790.7 111 763.3 103 736.2 94C709 85 682 75 654.8 69C627.7 63 600.3 61 573 63C545.7 65 518.3 71 491 85C463.7 99 436.3 121 409 118C381.7 115 354.3 87 327 83C299.7 79 272.3 99 245.2 104C218 109 191 99 163.8 90C136.7 81 109.3 73 82 82C54.7 91 27.3 117 13.7 130L0 143Z" fill="#cda7a6"></path><path d="M0 415L13.7 413C27.3 411 54.7 407 82 408C109.3 409 136.7 415 163.8 402C191 389 218 357 245.2 342C272.3 327 299.7 329 327 346C354.3 363 381.7 395 409 388C436.3 381 463.7 335 491 302C518.3 269 545.7 249 573 257C600.3 265 627.7 301 654.8 334C682 367 709 397 736.2 414C763.3 431 790.7 435 818 411C845.3 387 872.7 335 886.3 309L900 283L900 125L886.3 139C872.7 153 845.3 181 818 184C790.7 187 763.3 165 736.2 153C709 141 682 139 654.8 132C627.7 125 600.3 113 573 110C545.7 107 518.3 113 491 131C463.7 149 436.3 179 409 179C381.7 179 354.3 149 327 145C299.7 141 272.3 163 245.2 167C218 171 191 157 163.8 151C136.7 145 109.3 147 82 160C54.7 173 27.3 197 13.7 209L0 221Z" fill="#dbbbbb"></path><path d="M0 487L13.7 495C27.3 503 54.7 519 82 528C109.3 537 136.7 539 163.8 537C191 535 218 529 245.2 528C272.3 527 299.7 531 327 531C354.3 531 381.7 527 409 525C436.3 523 463.7 523 491 516C518.3 509 545.7 495 573 498C600.3 501 627.7 521 654.8 530C682 539 709 537 736.2 532C763.3 527 790.7 519 818 516C845.3 513 872.7 515 886.3 516L900 517L900 281L886.3 307C872.7 333 845.3 385 818 409C790.7 433 763.3 429 736.2 412C709 395 682 365 654.8 332C627.7 299 600.3 263 573 255C545.7 247 518.3 267 491 300C463.7 333 436.3 379 409 386C381.7 393 354.3 361 327 344C299.7 327 272.3 325 245.2 340C218 355 191 387 163.8 400C136.7 413 109.3 407 82 406C54.7 405 27.3 409 13.7 411L0 413Z" fill="#e1c5c5"></path><path d="M0 601L13.7 601C27.3 601 54.7 601 82 601C109.3 601 136.7 601 163.8 601C191 601 218 601 245.2 601C272.3 601 299.7 601 327 601C354.3 601 381.7 601 409 601C436.3 601 463.7 601 491 601C518.3 601 545.7 601 573 601C600.3 601 627.7 601 654.8 601C682 601 709 601 736.2 601C763.3 601 790.7 601 818 601C845.3 601 872.7 601 886.3 601L900 601L900 515L886.3 514C872.7 513 845.3 511 818 514C790.7 517 763.3 525 736.2 530C709 535 682 537 654.8 528C627.7 519 600.3 499 573 496C545.7 493 518.3 507 491 514C463.7 521 436.3 521 409 523C381.7 525 354.3 529 327 529C299.7 529 272.3 525 245.2 526C218 527 191 533 163.8 535C136.7 537 109.3 535 82 526C54.7 517 27.3 501 13.7 493L0 485Z" fill="#e7d0d0"></path></svg>