<svg id="visual" viewBox="0 0 900 600" width="900" height="600" xmlns="http://www.w3.org/2000/svg" xmlns:xlink="http://www.w3.org/1999/xlink" version="1.1"><path d="M0 31L12.5 31C25 31 50 31 75 34C100 37 125 43 150 52C175 61 200 73 225 77C250 81 275 77 300 75C325 73 350 73 375 74C400 75 425 77 450 79C475 81 500 83 525 75C550 67 575 49 600 42C625 35 650 39 675 46C700 53 725 63 750 70C775 77 800 81 825 79C850 77 875 69 887.5 65L900 61L900 0L887.5 0C875 0 850 0 825 0C800 0 775 0 750 0C725 0 700 0 675 0C650 0 625 0 600 0C575 0 550 0 525 0C500 0 475 0 450 0C425 0 400 0 375 0C350 0 325 0 300 0C275 0 250 0 225 0C200 0 175 0 150 0C125 0 100 0 75 0C50 0 25 0 12.5 0L0 0Z" fill="#ffffff"></path><path d="M0 103L12.5 100C25 97 50 91 75 97C100 103 125 121 150 139C175 157 200 175 225 175C250 175 275 157 300 154C325 151 350 163 375 167C400 171 425 167 450 166C475 165 500 167 525 161C550 155 575 141 600 127C625 113 650 99 675 102C700 105 725 125 750 131C775 137 800 129 825 121C850 113 875 105 887.5 101L900 97L900 59L887.5 63C875 67 850 75 825 77C800 79 775 75 750 68C725 61 700 51 675 44C650 37 625 33 600 40C575 47 550 65 525 73C500 81 475 79 450 77C425 75 400 73 375 72C350 71 325 71 300 73C275 75 250 79 225 75C200 71 175 59 150 50C125 41 100 35 75 32C50 29 25 29 12.5 29L0 29Z" fill="#eaeaea"></path><path d="M0 307L12.5 288C25 269 50 231 75 237C100 243 125 293 150 314C175 335 200 327 225 324C250 321 275 323 300 331C325 339 350 353 375 364C400 375 425 383 450 367C475 351 500 311 525 283C550 255 575 239 600 237C625 235 650 247 675 263C700 279 725 299 750 314C775 329 800 339 825 336C850 333 875 317 887.5 309L900 301L900 95L887.5 99C875 103 850 111 825 119C800 127 775 135 750 129C725 123 700 103 675 100C650 97 625 111 600 125C575 139 550 153 525 159C500 165 475 163 450 164C425 165 400 169 375 165C350 161 325 149 300 152C275 155 250 173 225 173C200 173 175 155 150 137C125 119 100 101 75 95C50 89 25 95 12.5 98L0 101Z" fill="#d6d6d6"></path><path d="M0 355L12.5 352C25 349 50 343 75 359C100 375 125 413 150 420C175 427 200 403 225 391C250 379 275 379 300 387C325 395 350 411 375 422C400 433 425 439 450 435C475 431 500 417 525 391C550 365 575 327 600 322C625 317 650 345 675 360C700 375 725 377 750 386C775 395 800 411 825 419C850 427 875 427 887.5 427L900 427L900 299L887.5 307C875 315 850 331 825 334C800 337 775 327 750 312C725 297 700 277 675 261C650 245 625 233 600 235C575 237 550 253 525 281C500 309 475 349 450 365C425 381 400 373 375 362C350 351 325 337 300 329C275 321 250 319 225 322C200 325 175 333 150 312C125 291 100 241 75 235C50 229 25 267 12.5 286L0 305Z" fill="#c2c2c2"></path><path d="M0 505L12.5 505C25 505 50 505 75 510C100 515 125 525 150 532C175 539 200 543 225 539C250 535 275 523 300 517C325 511 350 511 375 519C400 527 425 543 450 550C475 557 500 555 525 552C550 549 575 545 600 542C625 539 650 537 675 540C700 543 725 551 750 557C775 563 800 567 825 566C850 565 875 559 887.5 556L900 553L900 425L887.5 425C875 425 850 425 825 417C800 409 775 393 750 384C725 375 700 373 675 358C650 343 625 315 600 320C575 325 550 363 525 389C500 415 475 429 450 433C425 437 400 431 375 420C350 409 325 393 300 385C275 377 250 377 225 389C200 401 175 425 150 418C125 411 100 373 75 357C50 341 25 347 12.5 350L0 353Z" fill="#aeaeae"></path><path d="M0 601L12.5 601C25 601 50 601 75 601C100 601 125 601 150 601C175 601 200 601 225 601C250 601 275 601 300 601C325 601 350 601 375 601C400 601 425 601 450 601C475 601 500 601 525 601C550 601 575 601 600 601C625 601 650 601 675 601C700 601 725 601 750 601C775 601 800 601 825 601C850 601 875 601 887.5 601L900 601L900 551L887.5 554C875 557 850 563 825 564C800 565 775 561 750 555C725 549 700 541 675 538C650 535 625 537 600 540C575 543 550 547 525 550C500 553 475 555 450 548C425 541 400 525 375 517C350 509 325 509 300 515C275 521 250 533 225 537C200 541 175 537 150 530C125 523 100 513 75 508C50 503 25 503 12.5 503L0 503Z" fill="#9b9b9b"></path></svg>